#!OML:ASF F:\twosubjects\two\Thursday\Session 1\Rory.ASF
:FULLY-SPECIFIED
:DEGREES
443
root 8.93497 14.1465 12.4252 -151.223 -33.5096 166.583
lowerback 28.1003 -3.58977 1.61489
upperback 6.54884 -5.03308 2.65469
thorax -8.00308 -2.85083 3.8018
lowerneck -4.41473 -10.2787 -7.87872
upperneck -17.1905 -12.9425 18.2784
head -2.49987 -7.45558 6.86842
rclavicle -1.35174e-014 -2.38542e-015
rhumerus 52.7191 -27.7308 -103.939
rradius 95.619
rwrist -92.6279
rhand -12.5614 6.21357
rfingers 7.12502
rthumb 13.5159 -23.3278
lclavicle -1.35174e-014 -2.38542e-015
lhumerus -4.12861 -58.3468 90.9786
lradius 92.4787
lwrist -0.524632
lhand -32.9499 61.2966
lfingers 7.12502
lthumb -6.16586 -451.187
rfemur -4.11121 9.35102 -6.77449
rtibia 61.1776
rfoot -17.0103 -20.6727
rtoes -28.8348
lfemur -82.4236 8.15786 -21.6913
ltibia 75.7873
lfoot -8.78046 -13.7992
ltoes 10.8163
444
root 8.89259 14.1457 12.4321 -151.48 -33.2506 166.632
lowerback 28.1105 -3.5294 1.87064
upperback 6.65622 -4.9029 2.8161
thorax -7.89558 -2.80744 3.78697
lowerneck -4.54686 -10.2227 -7.57577
upperneck -17.3531 -12.9293 17.515
head -2.62092 -7.43346 6.59698
rclavicle 9.62118e-014 -7.23576e-014
rhumerus 54.5544 -28.1595 -105.937
rradius 92.4539
rwrist -92.6721
rhand -10.8932 5.29743
rfingers 7.12502
rthumb 15.1234 -24.13
lclavicle 9.62118e-014 -7.23576e-014
lhumerus -4.3955 -58.3595 91.2947
lradius 92.5321
lwrist -0.468482
lhand -32.4946 61.1717
lfingers 7.12502
lthumb -5.72623 -451.074
rfemur -4.09154 8.75609 -7.44003
rtibia 61.097
rfoot -16.6856 -19.9353
rtoes -28.7962
lfemur -82.1711 8.06232 -21.621
ltibia 76.0846
lfoot -9.43151 -13.5661
ltoes 10.4181
445
root 8.85445 14.1346 12.4366 -151.684 -32.9134 166.592
lowerback 28.2224 -3.55959 1.99239
upperback 6.6484 -4.90772 2.90928
thorax -7.95849 -2.81526 3.83442
lowerneck -4.46303 -10.0564 -7.33274
upperneck -17.6202 -12.7754 16.7909
head -2.81562 -7.35289 6.37404
rclavicle -9.54166e-015 6.67916e-014
rhumerus 56.0959 -28.3703 -107.981
rradius 89.674
rwrist -92.2522
rhand -9.16056 4.33813
rfingers 7.12502
rthumb 16.7919 -24.9558
lclavicle -9.54166e-015 6.67916e-014
lhumerus -4.89783 -58.2628 91.7674
lradius 93.2447
lwrist -0.387341
lhand -31.8173 62.4689
lfingers 7.12502
lthumb -5.0723 -452.388
rfemur -4.04832 8.43476 -8.08734
rtibia 61.0176
rfoot -16.5621 -19.4038
rtoes -28.2336
lfemur -81.9818 8.11265 -21.729
ltibia 76.4205
lfoot -10.1155 -13.409
ltoes 9.58317
446
root 8.81624 14.1168 12.4395 -151.964 -32.6094 166.656
lowerback 28.1791 -3.93921 2.36553
upperback 6.66558 -5.30683 2.95894
thorax -7.92399 -3.01671 3.80875
lowerneck -4.4629 -9.77649 -7.91496
upperneck -17.5739 -12.4221 16.6636
head -2.8144 -7.14067 6.43959
rclavicle 4.45278e-014 -6.44062e-014
rhumerus 56.9642 -27.7191 -109.867
rradius 87.211
rwrist -91.2627
rhand -7.11106 3.76571
rfingers 7.12502
rthumb 18.764 -25.3493
lclavicle 4.45278e-014 -6.44062e-014
lhumerus -5.78683 -57.1071 92.0777
lradius 93.7573
lwrist -0.34262
lhand -32.0827 61.0928
lfingers 7.12502
lthumb -5.32859 -451.006
rfemur -3.95589 8.44239 -8.45442
rtibia 60.9511
rfoot -16.6641 -19.1187
rtoes -27.3339
lfemur -81.8234 8.22857 -21.7753
ltibia 76.7743
lfoot -10.4365 -13.2946
ltoes 8.64328
447
root 8.78272 14.1092 12.4412 -152.233 -32.3129 166.71
lowerback 28.2108 -4.16859 2.53883
upperback 6.61589 -5.54436 3.1943
thorax -7.97395 -3.13613 4.06129
lowerneck -4.37423 -9.60543 -8.69325
upperneck -17.3686 -12.2033 16.4902
head -2.757 -6.96562 6.51127
rclavicle 7.15625e-015 5.725e-014
rhumerus 57.5036 -27.1759 -111.07
rradius 84.7982
rwrist -89.7956
rhand -4.5256 4.05392
rfingers 7.12502
rthumb 21.2492 -24.8013
lclavicle 7.15625e-015 5.725e-014
lhumerus -6.38763 -56.3709 92.6797
lradius 93.8738
lwrist -0.24363
lhand -32.5568 61.9738
lfingers 7.12502
lthumb -5.78629 -451.875
rfemur -3.88138 8.41407 -8.77812
rtibia 60.9101
rfoot -16.4938 -19.0692
rtoes -27.5534
lfemur -81.5931 8.31591 -21.8337
ltibia 77.0559
lfoot -10.3301 -13.037
ltoes 6.8089
448
root 8.7536 14.1097 12.4462 -152.312 -31.8393 166.484
lowerback 28.239 -4.19608 2.3837
upperback 6.58537 -5.62241 3.26611
thorax -7.99759 -3.1729 4.26119
lowerneck -4.2834 -9.44525 -8.69625
upperneck -17.3525 -12.0414 15.944
head -2.83377 -6.85536 6.36011
rclavicle 3.18055e-014 -2.3059e-014
rhumerus 58.1519 -27.0094 -112.435
rradius 82.8212
rwrist -87.9942
rhand -1.8259 4.83169
rfingers 7.12502
rthumb 23.8404 -23.7089
lclavicle 3.18055e-014 -2.3059e-014
lhumerus -6.92999 -56.0136 93.1569
lradius 94.1607
lwrist -0.155193
lhand -32.429 62.6109
lfingers 7.12502
lthumb -5.66292 -452.515
rfemur -3.89971 8.3627 -9.43778
rtibia 60.9146
rfoot -16.1089 -19.0111
rtoes -28.4599
lfemur -81.3548 8.36143 -22.1828
ltibia 77.2986
lfoot -11.2232 -12.5936
ltoes 6.57984
449
root 8.72135 14.1016 12.4547 -152.404 -31.3434 166.274
lowerback 28.18 -4.05579 2.52268
upperback 6.7032 -5.44015 3.12664
thorax -7.87043 -3.09853 3.95073
lowerneck -4.4327 -9.43976 -7.83363
upperneck -17.6234 -12.1056 15.3245
head -2.99282 -6.92044 6.04659
rclavicle 1.59028e-015 -1.43125e-014
rhumerus 59.3222 -27.349 -114.257
rradius 81.4445
rwrist -85.8756
rhand 0.747452 5.63763
rfingers 7.12502
rthumb 26.3061 -22.5583
lclavicle 1.59028e-015 -1.43125e-014
lhumerus -7.39523 -56.2291 93.1624
lradius 94.7682
lwrist -0.0183701
lhand -32.4386 62.1655
lfingers 7.12502
lthumb -5.67217 -452.07
rfemur -3.9218 8.36198 -10.1463
rtibia 60.9571
rfoot -16.0979 -18.646
rtoes -28.1976
lfemur -81.2052 8.45143 -22.548
ltibia 77.5838
lfoot -11.8115 -12.2223
ltoes 5.15408
450
root 8.69369 14.0774 12.4589 -152.819 -31.0773 166.53
lowerback 28.2677 -4.01079 3.16035
upperback 6.77878 -5.224 3.14849
thorax -7.88257 -3.01469 3.54467
lowerneck -4.73354 -9.44172 -7.325
upperneck -17.5826 -12.1609 14.8168
head -3.00281 -6.94407 5.79568
rclavicle 1.52667e-013 -8.11041e-014
rhumerus 60.3154 -27.5213 -115.749
rradius 80.3036
rwrist -83.5694
rhand 3.37327 6.76222
rfingers 7.12502
rthumb 28.8172 -21.0328
lclavicle 1.52667e-013 -8.11041e-014
lhumerus -8.38625 -56.3291 93.6353
lradius 95.4518
lwrist -0.0087167
lhand -32.3868 61.85
lfingers 7.12502
lthumb -5.62214 -451.755
rfemur -3.85454 8.46804 -10.2723
rtibia 61.0275
rfoot -16.1619 -18.3708
rtoes -26.9578
lfemur -81.0888 8.6898 -22.4171
ltibia 77.9513
lfoot -11.9384 -12.06
ltoes 3.86091
451
root 8.67213 14.0514 12.4592 -153.312 -30.8698 166.896
lowerback 28.6306 -4.19012 3.55982
upperback 6.52581 -5.2757 3.4205
thorax -8.34639 -3.03488 3.69529
lowerneck -4.77536 -9.20873 -7.46455
upperneck -16.8766 -11.9056 13.9829
head -2.87123 -6.71577 5.53681
rclavicle -2.22639e-014 1.74931e-014
rhumerus 60.1052 -27.0229 -116.442
rradius 79.5223
rwrist -81.4551
rhand 5.66985 8.14898
rfingers 7.12502
rthumb 31.0087 -19.2508
lclavicle -2.22639e-014 1.74931e-014
lhumerus -10.8317 -55.5366 95.6738
lradius 96.0927
lwrist -0.417425
lhand -32.1554 61.1454
lfingers 7.12502
lthumb -5.39882 -451.057
rfemur -3.76144 8.59018 -10.1907
rtibia 61.0691
rfoot -15.8946 -18.5552
rtoes -26.6333
lfemur -80.9336 8.91289 -22.0898
ltibia 78.3537
lfoot -12.1578 -11.885
ltoes 4.08005
452
root 8.643 14.0341 12.4597 -153.26 -30.3788 166.483
lowerback 28.6742 -4.37221 3.28905
upperback 6.23114 -5.52697 3.5189
thorax -8.66297 -3.12847 4.07415
lowerneck -4.39638 -8.9003 -7.59104
upperneck -16.4877 -11.5614 13.1207
head -2.91124 -6.46874 5.312
rclavicle -2.70347e-014 -3.18055e-015
rhumerus 59.4479 -26.2662 -116.962
rradius 78.9694
rwrist -80.3336
rhand 6.88438 8.57967
rfingers 7.12502
rthumb 32.1656 -18.5929
lclavicle -2.70347e-014 -3.18055e-015
lhumerus -12.1631 -54.629 96.6399
lradius 96.7842
lwrist -0.0480538
lhand -32.1943 61.4267
lfingers 7.12502
lthumb -5.43638 -451.337
rfemur -3.71539 8.63796 -11.0078
rtibia 61.0619
rfoot -16.1022 -18.4674
rtoes -26.7109
lfemur -80.8166 8.87739 -22.5719
ltibia 78.7179
lfoot -12.8311 -11.4291
ltoes 3.57725
453
root 8.61076 14.019 12.4562 -153.203 -29.9077 166.062
lowerback 28.3873 -4.50529 3.16419
upperback 6.16314 -5.73531 3.59138
thorax -8.57322 -3.22301 4.27486
lowerneck -4.01803 -8.6712 -7.84054
upperneck -16.6391 -11.3076 12.6876
head -3.06158 -6.31719 5.25791
rclavicle -4.77083e-015 -2.3059e-014
rhumerus 59.2496 -25.4718 -117.446
rradius 78.2257
rwrist -80.3877
rhand 6.85663 7.58795
rfingers 7.12502
rthumb 32.1392 -19.59
lclavicle -4.77083e-015 -2.3059e-014
lhumerus -12.8975 -53.8562 97.2251
lradius 97.3047
lwrist 0.0600534
lhand -32.2841 61.6929
lfingers 7.12502
lthumb -5.52302 -451.601
rfemur -3.62512 8.74179 -11.8147
rtibia 61.0633
rfoot -16.6158 -18.0225
rtoes -26.2411
lfemur -80.7147 8.74863 -23.0234
ltibia 79.126
lfoot -13.6235 -10.6768
ltoes -0.585145
